<?xml version="1.0" standalone="no"?>
<!DOCTYPE svg PUBLIC "-//W3C//DTD SVG 20010904//EN"
 "http://www.w3.org/TR/2001/REC-SVG-20010904/DTD/svg10.dtd">
<svg version="1.0" xmlns="http://www.w3.org/2000/svg"
 width="512.000000pt" height="512.000000pt" viewBox="0 0 512.000000 512.000000"
 preserveAspectRatio="xMidYMid meet">

<g transform="translate(0.000000,512.000000) scale(0.100000,-0.100000)"
fill="#000000" stroke="none">
<path d="M2416 5109 c-552 -81 -942 -583 -886 -1143 13 -126 33 -227 96 -471
59 -233 78 -370 70 -515 -7 -142 -14 -179 -81 -460 -80 -330 -89 -393 -88
-615 1 -221 22 -430 63 -635 37 -181 46 -215 66 -231 24 -19 80 -16 105 6 25
24 24 51 -15 225 -40 186 -57 341 -63 575 -6 256 0 307 77 627 122 504 121
636 -4 1128 -65 257 -81 372 -73 529 11 233 92 415 258 580 169 167 377 253
619 254 182 1 321 -40 467 -135 201 -131 342 -329 394 -555 19 -81 21 -113 16
-226 -6 -146 -19 -206 -98 -465 -83 -273 -93 -325 -93 -502 -1 -183 8 -230 99
-580 80 -304 95 -396 95 -580 0 -660 -205 -1303 -507 -1591 -129 -123 -230
-170 -368 -170 -153 0 -272 58 -406 198 -87 91 -139 167 -215 316 -52 102 -75
127 -114 127 -21 0 -70 -53 -70 -76 0 -31 77 -186 144 -289 252 -387 597 -526
921 -372 445 214 765 982 768 1847 0 224 -7 268 -108 665 -123 483 -122 560 6
980 59 191 88 317 100 437 52 526 -330 1021 -860 1113 -90 16 -221 18 -315 4z"/>
<path d="M2453 4740 c-138 -25 -273 -100 -377 -210 -74 -79 -110 -135 -143
-228 -126 -345 61 -730 416 -856 79 -28 96 -30 216 -30 114 0 139 4 203 26 41
15 99 42 130 60 72 42 188 158 230 230 70 118 109 280 96 403 -11 114 -67 270
-109 305 -28 23 -75 16 -102 -14 -30 -35 -29 -51 6 -122 38 -76 50 -131 51
-227 0 -143 -63 -283 -173 -384 -200 -182 -502 -172 -696 24 -107 109 -151
215 -151 363 0 226 134 411 353 487 83 29 213 33 292 9 73 -23 100 -20 124 10
26 33 27 76 2 98 -51 46 -252 76 -368 56z"/>
<path d="M2460 4451 c-107 -36 -192 -107 -243 -205 -30 -57 -32 -68 -32 -161
1 -80 5 -111 23 -157 32 -80 99 -150 180 -190 62 -31 73 -33 172 -33 99 0 110
2 172 33 81 40 148 110 179 190 18 45 23 78 24 152 0 86 -3 101 -31 160 -37
79 -104 147 -182 185 -48 24 -72 29 -147 32 -49 1 -101 -1 -115 -6z"/>
<path d="M2433 2675 c-78 -21 -143 -58 -206 -115 -66 -61 -108 -123 -139 -210
-22 -64 -23 -73 -26 -543 -2 -312 1 -504 8 -550 30 -200 176 -361 375 -412
272 -70 557 120 605 404 8 46 10 221 8 557 -4 476 -4 491 -26 548 -60 161
-189 279 -349 321 -71 19 -181 18 -250 0z m271 -168 c66 -31 126 -89 163 -159
l28 -53 3 -516 c3 -510 2 -517 -19 -575 -30 -79 -101 -153 -182 -190 -76 -34
-173 -38 -255 -10 -66 22 -154 101 -190 170 l-27 51 0 535 0 535 25 50 c44 89
132 161 227 185 61 15 167 4 227 -23z"/>
<path d="M2507 2282 c-9 -10 -20 -39 -23 -64 l-6 -46 -46 -5 c-73 -8 -105 -69
-66 -125 12 -17 25 -22 63 -22 l48 0 6 -52 c7 -59 32 -88 76 -88 48 0 70 25
73 83 l3 52 54 5 c59 6 81 25 81 71 0 45 -30 71 -88 77 l-52 5 0 47 c0 33 -5
52 -18 63 -25 23 -85 22 -105 -1z"/>
<path d="M2385 1428 c-28 -16 -35 -28 -35 -65 0 -20 8 -40 22 -53 20 -18 35
-20 188 -20 153 0 168 2 188 20 32 30 30 82 -4 109 -24 19 -40 21 -183 21 -97
0 -164 -5 -176 -12z"/>
</g>
</svg>
