<?xml version="1.0" standalone="no"?>
<!DOCTYPE svg PUBLIC "-//W3C//DTD SVG 20010904//EN"
 "http://www.w3.org/TR/2001/REC-SVG-20010904/DTD/svg10.dtd">
<svg version="1.0" xmlns="http://www.w3.org/2000/svg"
 width="1000.000000pt" height="945.000000pt" viewBox="0 0 1000.000000 945.000000"
 preserveAspectRatio="xMidYMid meet">

<g transform="translate(0.000000,945.000000) scale(0.100000,-0.100000)"
fill="#000000" stroke="none">
<path d="M2970 9368 c0 -112 10 -139 293 -758 14 -30 59 -131 102 -225 42 -93
85 -189 95 -212 11 -23 61 -133 111 -245 50 -112 104 -230 119 -263 15 -33 80
-177 145 -320 64 -143 157 -348 206 -455 49 -108 93 -220 99 -249 11 -58 14
-561 4 -561 -4 0 -79 23 -168 51 -325 102 -373 117 -474 144 -121 34 -102 -3
-162 320 -22 121 -44 223 -48 227 -8 8 -246 146 -522 302 -80 46 -251 143
-380 217 -129 74 -255 146 -280 160 -25 14 -108 62 -185 106 -77 44 -158 91
-180 103 -22 12 -116 66 -210 120 -93 54 -219 126 -280 160 -60 34 -150 86
-200 115 -49 29 -202 117 -340 195 -137 79 -267 154 -287 166 -21 13 -40 24
-43 24 -3 0 -24 12 -48 27 -58 37 -239 133 -249 133 -5 0 7 -31 27 -69 37 -71
64 -99 240 -256 49 -44 114 -102 145 -130 31 -27 94 -84 140 -125 47 -41 107
-96 135 -121 27 -25 136 -122 240 -214 105 -92 224 -198 265 -235 41 -37 188
-167 325 -290 322 -287 396 -353 409 -365 6 -6 90 -80 186 -165 173 -153 235
-205 580 -495 96 -81 186 -157 200 -169 64 -55 277 -235 314 -264 22 -19 52
-43 66 -55 14 -12 66 -56 115 -98 669 -561 779 -656 791 -685 12 -30 29 -93
87 -334 l23 -95 166 -3 166 -2 38 -43 c22 -24 73 -90 116 -148 42 -57 90 -120
106 -139 l30 -35 37 35 c20 19 71 82 112 140 42 58 91 124 110 148 l34 42 168
0 168 0 16 58 c9 31 25 98 36 148 11 50 32 127 46 171 l25 81 128 109 c101 87
437 371 537 455 57 48 573 479 719 601 174 146 308 259 361 306 17 14 59 51
95 81 110 93 277 240 535 470 199 178 282 251 415 370 213 188 266 236 320
286 30 27 118 106 195 174 77 69 158 140 180 160 22 19 64 58 95 85 30 28 93
84 140 125 47 41 87 77 90 80 5 5 141 126 209 185 19 17 45 41 58 55 27 29 97
159 90 166 -7 7 -69 -27 -527 -289 -212 -121 -398 -228 -415 -237 -179 -102
-566 -323 -705 -403 -96 -55 -236 -135 -310 -177 -74 -42 -178 -101 -230 -131
-52 -30 -303 -173 -559 -319 -374 -214 -466 -270 -472 -290 -4 -14 -26 -125
-50 -248 -23 -123 -47 -229 -53 -236 -6 -8 -58 -27 -116 -44 -85 -24 -259 -77
-622 -188 -17 -5 -18 12 -18 254 0 143 4 281 9 309 5 27 67 175 136 328 437
967 740 1633 867 1910 145 315 173 410 151 510 l-9 40 -36 -60 c-20 -33 -75
-134 -124 -225 -48 -91 -119 -226 -159 -300 -39 -74 -96 -180 -125 -235 -29
-55 -79 -147 -110 -205 -31 -58 -83 -154 -115 -215 -32 -60 -72 -137 -90 -170
-18 -33 -50 -91 -70 -130 -47 -86 -332 -621 -429 -805 l-71 -135 -3 -212 -4
-213 -669 0 -669 0 1 193 c1 234 -2 245 -118 457 -120 218 -132 240 -205 375
-78 143 -123 226 -173 320 -338 631 -766 1415 -812 1487 -12 21 -23 42 -23 47
0 5 -4 13 -10 16 -6 4 -10 -18 -10 -57z m2362 -3354 c70 -69 72 -75 64 -279
-6 -181 -30 -598 -42 -732 l-6 -73 -303 0 -304 0 -5 43 c-3 23 -13 184 -21
357 -9 173 -20 367 -24 430 -5 66 -4 130 1 150 10 36 59 107 87 125 29 18 104
23 309 20 l204 -2 40 -39z"/>
<path d="M4038 9177 c-20 -12 -63 -47 -95 -77 -33 -30 -74 -68 -92 -84 l-33
-28 4 -467 3 -466 74 -140 c40 -77 121 -225 179 -330 58 -104 136 -245 174
-313 37 -68 68 -128 68 -133 0 -5 4 -9 10 -9 6 0 11 147 12 408 l3 407 655 0
655 0 3 -407 c1 -261 6 -408 12 -408 6 0 10 4 10 10 0 5 14 33 31 62 27 46
185 331 289 523 18 33 57 104 87 157 87 157 82 131 88 475 3 169 3 382 -1 473
l-7 165 -71 70 c-39 39 -92 85 -118 103 l-47 32 -928 0 -928 0 -37 -23z"/>
<path d="M4397 7813 c-3 -47 -2 -342 1 -655 l5 -568 604 0 603 0 0 655 0 655
-604 0 -603 0 -6 -87z"/>
<path d="M6422 7763 c-38 -84 -181 -398 -232 -513 -21 -47 -54 -119 -73 -160
-125 -270 -188 -414 -197 -452 -6 -24 -13 -139 -17 -257 l-6 -214 24 5 c13 3
78 22 144 42 374 114 466 144 482 154 6 4 30 97 52 207 62 299 52 279 174 352
56 34 140 82 187 108 194 107 241 137 232 149 -5 6 -36 47 -69 91 -104 137
-230 259 -398 385 -90 67 -250 170 -265 170 -3 0 -20 -30 -38 -67z"/>
<path d="M3430 7759 c-135 -85 -239 -167 -364 -289 -125 -122 -263 -287 -250
-299 5 -5 29 -20 54 -33 25 -14 104 -59 175 -100 72 -41 169 -96 217 -122 l87
-47 11 -57 c7 -31 31 -145 54 -252 l41 -195 50 -17 c28 -9 151 -46 275 -83
124 -37 245 -73 269 -81 25 -8 48 -14 52 -14 12 0 3 420 -10 475 -7 27 -43
114 -82 193 -38 79 -69 146 -69 149 0 3 -24 57 -54 122 -30 64 -92 202 -139
306 -159 354 -185 405 -204 405 -10 0 -61 -28 -113 -61z"/>
<path d="M9916 7144 c-26 -14 -76 -45 -110 -68 -33 -23 -97 -67 -141 -98 -44
-30 -170 -117 -280 -193 -110 -76 -250 -173 -310 -214 -61 -42 -317 -218 -568
-391 -252 -173 -503 -347 -560 -385 -56 -39 -147 -102 -202 -140 -55 -38 -125
-86 -156 -107 -76 -50 -113 -97 -148 -188 -16 -41 -55 -136 -86 -210 -105
-248 -172 -414 -193 -475 -23 -65 -29 -165 -53 -875 -6 -184 -14 -397 -17
-473 -4 -75 -5 -137 -2 -137 7 1 287 196 543 380 35 25 145 104 246 175 386
274 337 224 603 612 86 125 176 255 199 288 24 33 66 94 94 135 29 41 94 135
146 208 52 74 112 160 134 192 22 32 90 129 150 216 61 86 130 187 155 223 25
36 79 116 121 176 42 61 84 125 93 142 9 18 64 164 122 325 58 161 140 385
181 498 87 235 102 287 104 350 l2 45 7 -35 7 -35 2 43 c1 51 -11 53 -83 16z
m-2166 -2283 c0 -17 -4 -85 -10 -153 -5 -68 -19 -256 -30 -418 -17 -253 -38
-484 -43 -486 -1 0 -22 -15 -45 -34 -41 -31 -100 -72 -255 -177 -37 -25 -69
-44 -72 -41 -11 10 29 1166 41 1177 8 8 387 159 402 160 7 1 12 -11 12 -28z"/>
<path d="M10 7133 c0 -58 20 -120 167 -523 19 -52 38 -104 40 -115 9 -31 189
-516 207 -555 9 -19 49 -82 89 -140 40 -58 102 -148 138 -200 36 -52 83 -120
104 -150 37 -52 102 -146 227 -325 30 -44 68 -99 84 -121 16 -23 63 -90 105
-150 42 -60 109 -156 149 -214 40 -58 140 -202 222 -320 225 -327 225 -327
423 -465 118 -82 131 -91 540 -384 218 -156 399 -281 402 -277 3 3 1 124 -6
268 -6 145 -16 421 -21 613 -6 193 -15 400 -19 461 -9 119 -6 110 -167 494
-31 74 -76 184 -100 244 -79 192 -97 218 -204 289 -14 9 -43 29 -65 45 -22 15
-123 84 -225 153 -102 69 -219 149 -260 178 -41 29 -118 82 -170 117 -52 36
-153 106 -225 155 -71 49 -179 124 -240 165 -60 41 -150 103 -200 138 -133 92
-211 146 -300 208 -44 30 -192 132 -328 226 -265 184 -285 196 -334 207 -31 6
-33 5 -33 -22z m2465 -2326 l190 -75 7 -113 c15 -242 37 -1054 29 -1062 -5 -5
-44 16 -87 47 -294 205 -281 194 -287 234 -9 56 -35 368 -52 632 -9 129 -18
277 -22 329 -6 90 -5 94 13 88 10 -3 105 -39 209 -80z"/>
<path d="M2222 6401 c-116 -164 -260 -420 -248 -440 3 -4 31 -24 63 -46 32
-22 108 -76 170 -120 62 -44 166 -118 232 -165 125 -88 148 -116 191 -230 7
-19 62 -152 121 -295 59 -143 127 -312 152 -375 l45 -116 11 -224 c6 -124 13
-333 16 -465 6 -210 9 -276 14 -295 0 -2 38 31 84 75 45 44 105 102 133 128
l51 48 116 -158 c222 -304 296 -396 339 -421 45 -27 62 -41 144 -114 l52 -46
78 19 c43 11 199 62 348 114 149 51 296 101 326 111 48 15 93 18 345 17 l290
0 250 -87 c138 -48 312 -107 388 -131 l139 -44 106 79 c144 106 186 149 294
298 50 70 132 180 181 245 l89 117 131 -126 132 -126 7 93 c4 52 12 266 18
475 12 430 7 403 104 636 35 84 102 248 149 363 144 353 129 328 254 421 59
44 194 140 300 213 l191 132 -20 47 c-58 132 -277 482 -302 482 -11 0 -84 -59
-411 -330 -143 -119 -312 -258 -375 -310 -63 -52 -120 -99 -126 -105 -6 -5
-31 -26 -55 -46 -139 -115 -416 -345 -425 -354 -6 -5 -30 -26 -54 -45 -24 -19
-74 -60 -110 -90 -310 -254 -342 -284 -357 -317 -8 -20 -39 -135 -69 -257 -31
-121 -57 -222 -58 -224 -2 -2 -80 -4 -174 -5 -157 -2 -172 -4 -189 -22 -10
-11 -75 -89 -143 -174 -69 -84 -130 -160 -136 -167 -6 -8 -17 -14 -23 -14 -12
0 -80 70 -123 126 -88 116 -174 217 -196 232 -22 14 -51 17 -175 17 -146 0
-148 0 -167 25 -27 35 -45 93 -79 252 -29 131 -62 221 -99 263 -9 11 -53 49
-97 85 -44 35 -121 98 -171 140 -50 41 -110 91 -135 111 -24 20 -152 126 -284
235 -233 194 -552 458 -934 772 -102 84 -198 164 -213 177 -14 14 -30 25 -35
25 -4 -1 -36 -41 -71 -89z m1294 -1902 c448 -150 467 -157 632 -209 202 -65
256 -95 377 -210 55 -53 120 -114 144 -137 43 -40 44 -42 29 -65 -9 -12 -49
-58 -90 -100 l-73 -77 -280 -9 c-203 -6 -290 -5 -315 3 -19 6 -93 56 -165 110
-71 54 -205 153 -297 221 -92 68 -177 132 -189 141 -82 67 -73 41 -79 243 -4
158 -3 190 5 190 1 0 136 -45 301 -101z m3274 -62 c0 -142 -11 -227 -29 -227
-4 0 -16 -8 -27 -19 -11 -10 -119 -92 -240 -182 -312 -234 -396 -294 -424
-309 -19 -10 -85 -12 -312 -6 -158 3 -294 9 -302 12 -8 3 -51 48 -96 99 l-81
94 93 89 c197 188 268 238 399 277 46 14 291 94 544 179 253 84 463 151 468
149 4 -2 7 -73 7 -156z"/>
<path d="M1724 3834 c-3 -31 -4 -88 -2 -127 5 -79 4 -76 528 -1112 103 -203
271 -537 374 -741 l188 -372 76 -35 c152 -69 669 -277 674 -271 5 4 -11 530
-20 666 l-8 128 -80 114 c-43 64 -111 162 -151 218 -39 57 -101 146 -138 198
-36 52 -95 136 -131 185 -91 126 -97 142 -102 267 l-4 106 -147 103 c-80 57
-193 136 -251 177 -58 40 -114 80 -125 88 -132 97 -661 464 -669 464 -2 0 -8
-25 -12 -56z m1012 -814 c46 -34 52 -44 58 -86 3 -26 6 -66 6 -90 0 -52 14
-93 90 -276 32 -76 54 -140 51 -143 -7 -4 -115 85 -261 215 -36 32 -93 81
-128 110 -43 37 -65 64 -73 89 -11 40 -48 352 -42 363 4 8 225 -127 299 -182z
m561 -1013 l48 -72 4 -168 c4 -192 -1 -219 -29 -167 -11 19 -33 69 -49 110
-26 67 -30 92 -36 229 -6 109 -5 152 3 147 6 -3 32 -39 59 -79z"/>
<path d="M8100 3782 c-220 -152 -284 -197 -375 -262 -89 -64 -460 -326 -546
-386 -30 -21 -65 -46 -78 -56 -20 -14 -24 -29 -31 -121 -5 -57 -15 -120 -23
-138 -8 -19 -132 -203 -276 -409 -145 -206 -274 -394 -287 -416 -24 -40 -25
-52 -34 -320 -14 -414 -16 -504 -10 -502 3 2 100 40 215 86 234 93 274 110
426 176 l106 47 301 597 c714 1416 783 1557 789 1599 6 48 -6 213 -15 213 -4
-1 -77 -49 -162 -108z m-545 -659 c-11 -139 -33 -291 -46 -310 -7 -10 -35 -38
-63 -63 -29 -25 -83 -73 -121 -106 -148 -131 -260 -222 -267 -218 -4 3 13 53
38 112 83 194 94 231 104 331 5 53 10 99 10 103 0 15 47 49 183 134 78 49 144
92 145 96 2 5 8 8 14 8 6 0 7 -31 3 -87z m-847 -1182 c-5 -178 -7 -184 -101
-329 l-42 -66 -6 65 c-9 90 -9 236 0 290 5 31 20 62 46 95 57 71 87 104 98
104 6 0 8 -63 5 -159z"/>
<path d="M3121 3675 l-123 -126 7 -322 c4 -177 11 -340 17 -361 5 -22 36 -78
69 -125 33 -47 146 -212 251 -366 105 -154 194 -284 199 -290 6 -5 40 6 89 30
l80 39 -1 101 c0 55 -4 288 -8 518 l-8 417 -38 58 c-34 49 -385 523 -404 545
-4 4 -62 -49 -130 -118z"/>
<path d="M6685 3708 c-33 -44 -65 -86 -70 -92 -21 -23 -213 -283 -257 -348
-57 -84 -56 -67 -64 -650 l-7 -456 81 -41 81 -40 33 47 c18 26 50 72 70 102
20 30 64 93 97 140 33 47 121 176 195 287 l135 201 5 79 c3 43 8 198 11 346
l6 267 -120 120 c-66 66 -123 120 -128 120 -4 -1 -35 -37 -68 -82z"/>
<path d="M4785 3361 c-44 -4 -125 -22 -180 -40 -55 -18 -220 -71 -367 -119
l-267 -87 0 -570 1 -570 204 -170 c113 -93 235 -194 270 -224 37 -29 69 -49
74 -45 8 9 92 211 155 374 42 107 79 197 95 233 l13 27 213 0 214 0 22 -42
c37 -71 85 -185 153 -358 84 -217 94 -240 103 -240 7 0 22 12 355 289 l197
164 -2 565 -3 565 -300 99 c-465 154 -433 147 -668 152 -111 2 -238 1 -282 -3z"/>
<path d="M3790 2673 c0 -279 -4 -502 -9 -516 -10 -26 -39 -57 -92 -97 -72 -55
-69 -41 -69 -281 l0 -218 28 -21 c15 -12 50 -42 77 -68 28 -25 75 -69 105 -96
31 -28 89 -82 131 -121 41 -38 126 -117 189 -175 63 -58 144 -132 180 -166
172 -161 313 -283 321 -279 4 3 8 133 7 289 l-1 284 42 89 c60 125 212 407
225 415 6 4 52 8 101 8 l91 0 13 -37 c8 -21 54 -121 103 -222 48 -101 95 -207
103 -234 12 -40 15 -111 15 -324 0 -231 2 -273 14 -266 13 8 119 102 251 223
33 30 84 78 114 105 31 28 85 77 120 110 36 33 70 65 76 70 7 6 58 53 115 105
57 52 108 100 114 105 6 6 49 44 96 85 46 41 99 88 117 104 l33 29 0 216 0
216 -37 25 c-92 61 -141 103 -147 123 -3 12 -6 243 -6 512 l-1 490 -36 -40
c-75 -85 -73 -60 -73 -631 l0 -512 -87 -73 c-49 -40 -137 -116 -198 -168 -117
-100 -124 -106 -225 -191 -36 -30 -82 -70 -103 -90 -35 -32 -39 -34 -51 -18
-7 9 -52 113 -101 230 -48 117 -109 265 -135 328 l-48 115 -150 3 -150 3 -24
-43 c-27 -49 -107 -239 -197 -468 -34 -85 -65 -161 -70 -169 -10 -15 -37 6
-271 209 -52 45 -164 141 -249 213 l-154 131 8 347 c4 191 4 427 0 524 -8 190
-8 188 -85 285 l-20 25 0 -492z"/>
<path d="M4949 1628 c-8 -18 -49 -100 -91 -183 -119 -236 -110 -181 -106 -640
l4 -400 38 -105 c20 -58 50 -143 66 -190 l29 -85 113 4 c62 2 115 5 117 7 12
11 121 365 131 425 8 51 11 185 8 424 l-4 350 -26 60 c-15 33 -56 122 -92 198
-36 76 -66 143 -66 148 0 5 -18 9 -39 9 -22 0 -45 2 -53 5 -8 3 -19 -7 -29
-27z"/>
</g>
</svg>
